<svg viewBox="0 0 229 229" xmlns="http://www.w3.org/2000/svg"><circle cx="114.5" cy="114.5" fill="#9b59b6" r="114.5"/><path d="m185.31 111.43v-3.86a3.77 3.77 0 0 0 -3.69-3.85h-64.62v-9.63h16.6a7.55 7.55 0 0 0 7.4-7.71v-30.83a7.54 7.54 0 0 0 -7.38-7.7h-44.26a7.54 7.54 0 0 0 -7.36 7.7v30.83a7.55 7.55 0 0 0 7.38 7.71h16.62v9.63h-64.62a3.77 3.77 0 0 0 -3.69 3.85v3.86a3.77 3.77 0 0 0 3.69 3.85h24v9.63h-12.93a7.55 7.55 0 0 0 -7.38 7.71v30.83a7.55 7.55 0 0 0 7.38 7.7h36.91a7.55 7.55 0 0 0 7.38-7.7v-30.83a7.55 7.55 0 0 0 -7.38-7.71h-12.92v-9.63h70.12v9.63h-12.92a7.55 7.55 0 0 0 -7.38 7.71v30.83a7.55 7.55 0 0 0 7.38 7.7h36.91a7.55 7.55 0 0 0 7.38-7.7v-30.83a7.55 7.55 0 0 0 -7.38-7.71h-12.92v-9.63h24a3.77 3.77 0 0 0 3.68-3.85zm-88.57-32.76v-15.41h29.52v15.41zm-14.74 77.07h-22.17v-15.41h22.17zm81.19 0h-22.19v-15.41h22.15z" fill="#fff"/></svg>